#!OML:ASF H:\Terrain\Walking\May29\JustinRory\Justin.ASF
:FULLY-SPECIFIED
:DEGREES
587
root 6.96444 18.0247 6.79691 -176.498 4.70213 181.516
lowerback -1.98111 1.67191 -1.12568
upperback 1.88096 2.34792 -1.26835
thorax 3.05073 1.17888 -0.563685
lowerneck -16.5486 -3.71577 -12.7668
upperneck 17.3821 -3.28071 5.93112
head 8.45971 -1.87445 3.69136
rclavicle -3.0911e-014 1.59028e-014
rhumerus -27.4491 -13.7768 -83.7129
rradius 27.348
rwrist -8.4553
rhand -13.2148 21.686
rfingers 7.12502
rthumb 12.8861 -7.89621
lclavicle -3.0911e-014 1.59028e-014
lhumerus -28.8225 16.1766 75.8863
lradius 28.702
lwrist -10.4562
lhand 1.95991 38.5978
lfingers 7.12502
lthumb 27.4662 66.615
rfemur -1.30799 1.22048 13.0227
rtibia 12.0855
rfoot -9.25671 -9.72831
rtoes -2.58391
lfemur -7.60181 -0.648655 -21.8738
ltibia 22.7034
lfoot -13.8056 1.52656
ltoes -3.06325
588
root 6.96129 18.0254 6.79288 -176.502 4.68763 181.492
lowerback -1.75879 1.67759 -1.21072
upperback 1.67321 2.34268 -1.21866
thorax 2.70575 1.17358 -0.476639
lowerneck -16.309 -3.66574 -12.8505
upperneck 17.4944 -3.24051 5.91949
head 8.45237 -1.87467 3.70812
rclavicle -1.12313e-014 1.74931e-014
rhumerus -27.8492 -13.5412 -83.6151
rradius 27.4242
rwrist -8.27055
rhand -13.49 21.5553
rfingers 7.12502
rthumb 12.6209 -8.04347
lclavicle -1.12313e-014 1.74931e-014
lhumerus -29.2621 16.123 75.8315
lradius 28.7342
lwrist -10.4883
lhand 1.86812 38.5462
lfingers 7.12502
lthumb 27.3785 66.5773
rfemur -1.24598 1.21921 12.9673
rtibia 12.0132
rfoot -9.39263 -9.70407
rtoes -3.04165
lfemur -7.58576 -0.792365 -21.9239
ltibia 22.7158
lfoot -14.0126 1.6506
ltoes -4.18877
589
root 6.96176 18.0236 6.793 -176.501 4.67344 181.474
lowerback -1.07959 1.68578 -1.45281
upperback 1.284 2.32471 -1.06097
thorax 1.90738 1.16063 -0.21057
lowerneck -16.5312 -3.65912 -12.99
upperneck 18.0574 -3.17343 5.76309
head 8.67746 -1.89073 3.68995
rclavicle 2.66371e-014 2.62396e-014
rhumerus -28.4676 -13.3431 -83.2785
rradius 27.5669
rwrist -8.20815
rhand -13.4376 21.6271
rfingers 7.12502
rthumb 12.6713 -7.96846
lclavicle 2.66371e-014 2.62396e-014
lhumerus -29.8601 16.1249 75.8804
lradius 28.7611
lwrist -10.4862
lhand 1.80898 38.7118
lfingers 7.12502
lthumb 27.3219 66.7519
rfemur -1.21535 1.15096 12.9501
rtibia 11.9341
rfoot -9.45809 -9.71127
rtoes -4.04352
lfemur -7.59379 -0.843696 -21.9659
ltibia 22.7308
lfoot -14.2411 1.78807
ltoes -6.71576
590
root 6.96222 18.0215 6.79456 -176.49 4.67396 181.551
lowerback -0.670172 1.6748 -1.53817
upperback 1.01895 2.28765 -0.901765
thorax 1.39593 1.14105 -0.0197119
lowerneck -16.615 -3.62286 -13.0839
upperneck 18.4496 -3.08259 5.58284
head 8.81723 -1.89258 3.65758
rclavicle -3.72721e-015 1.90833e-014
rhumerus -29.0245 -12.7541 -83.1814
rradius 27.8786
rwrist -8.51915
rhand -13.6234 21.5112
rfingers 7.12502
rthumb 12.4922 -8.09545
lclavicle -3.72721e-015 1.90833e-014
lhumerus -30.3195 16.2964 75.8781
lradius 28.7334
lwrist -10.6712
lhand 1.7874 38.7885
lfingers 7.12502
lthumb 27.3012 66.8318
rfemur -1.24155 1.19348 13.0431
rtibia 11.9612
rfoot -9.54923 -9.76053
rtoes -4.13564
lfemur -7.59678 -0.846645 -21.8965
ltibia 22.7018
lfoot -14.2063 1.90007
ltoes -8.8973
591
root 6.96054 18.0224 6.79486 -176.486 4.69461 181.609
lowerback -0.670153 1.79347 -1.41385
upperback 0.982915 2.446 -0.998823
thorax 1.36675 1.2228 -0.186247
lowerneck -16.4307 -3.66528 -12.7719
upperneck 18.4798 -3.24298 5.52198
head 8.80284 -1.95738 3.56602
rclavicle 2.88735e-014 7.15625e-015
rhumerus -29.4176 -12.6436 -83.3441
rradius 28.3421
rwrist -8.98072
rhand -13.3966 21.0891
rfingers 7.12502
rthumb 12.7109 -8.50407
lclavicle 2.88735e-014 7.15625e-015
lhumerus -30.2889 15.8651 75.8575
lradius 28.6705
lwrist -10.7236
lhand 1.7492 38.8053
lfingers 7.12502
lthumb 27.2647 66.8544
rfemur -1.2753 1.23482 13.0977
rtibia 12.0267
rfoot -9.65858 -9.75171
rtoes -3.93601
lfemur -7.5783 -0.954122 -21.8426
ltibia 22.6567
lfoot -14.1148 2.02528
ltoes -8.40039
592
root 6.95789 18.0228 6.79352 -176.508 4.67238 181.47
lowerback -0.599388 1.73555 -1.63941
upperback 0.983016 2.36883 -0.931559
thorax 1.31582 1.18174 0.00455733
lowerneck -16.5277 -3.63265 -12.8865
upperneck 18.4968 -3.14248 5.46729
head 8.81813 -1.92333 3.57813
rclavicle 8.74653e-015 -2.46493e-014
rhumerus -29.3763 -12.3124 -83.3224
rradius 28.4617
rwrist -9.20198
rhand -12.9297 20.8629
rfingers 7.12502
rthumb 13.1609 -8.70178
lclavicle 8.74653e-015 -2.46493e-014
lhumerus -30.3674 16.1567 75.8889
lradius 28.6073
lwrist -10.7593
lhand 1.5889 38.5414
lfingers 7.12502
lthumb 27.1114 66.6144
rfemur -1.26701 1.20138 12.922
rtibia 12.0504
rfoot -9.7026 -9.69878
rtoes -3.15736
lfemur -7.54198 -0.975184 -22.0025
ltibia 22.6136
lfoot -14.0877 2.02698
ltoes -7.41045
593
root 6.95672 18.0228 6.79169 -176.549 4.64909 181.372
lowerback -0.498269 1.68359 -1.90527
upperback 0.950783 2.29567 -0.79368
thorax 1.21097 1.14185 0.288623
lowerneck -16.1205 -3.63989 -12.8996
upperneck 17.9941 -3.10242 5.05064
head 8.56623 -1.93674 3.43667
rclavicle -2.38542e-015 -1.31198e-014
rhumerus -29.293 -11.8965 -83.2411
rradius 28.4411
rwrist -9.49698
rhand -12.884 20.7357
rfingers 7.12502
rthumb 13.205 -8.82612
lclavicle -2.38542e-015 -1.31198e-014
lhumerus -30.509 16.646 75.9102
lradius 28.4939
lwrist -11.1038
lhand 1.45853 38.0515
lfingers 7.12502
lthumb 26.9866 66.144
rfemur -1.27211 1.19127 12.8056
rtibia 12.1457
rfoot -9.77719 -9.69975
rtoes -2.81425
lfemur -7.46307 -0.895424 -22.1141
ltibia 22.5452
lfoot -14.0665 1.92999
ltoes -7.433
594
root 6.95408 18.0227 6.7875 -176.595 4.72797 181.398
lowerback -0.503611 1.69479 -1.84661
upperback 0.937028 2.30896 -0.782878
thorax 1.20143 1.14882 0.267022
lowerneck -15.3676 -3.6899 -12.5776
upperneck 17.2363 -3.2031 4.37618
head 8.17211 -2.01434 3.13826
rclavicle 4.37326e-015 1.43125e-014
rhumerus -29.443 -11.5687 -83.334
rradius 28.645
rwrist -9.89026
rhand -13.0858 20.6155
rfingers 7.12502
rthumb 13.0105 -8.95874
lclavicle 4.37326e-015 1.43125e-014
lhumerus -30.6195 16.8633 75.7994
lradius 28.4301
lwrist -11.4099
lhand 1.55128 37.8184
lfingers 7.12502
lthumb 27.0754 65.8971
rfemur -1.30793 1.29769 12.8212
rtibia 12.3031
rfoot -9.80872 -9.72426
rtoes -3.3655
lfemur -7.32665 -0.783305 -22.1051
ltibia 22.4136
lfoot -13.9709 1.91845
ltoes -7.65585
595
root 6.95162 18.0203 6.78499 -176.617 4.81428 181.42
lowerback -0.567404 1.72845 -1.78988
upperback 1.05361 2.35904 -0.797316
thorax 1.35873 1.1735 0.225876
lowerneck -15.6261 -3.75763 -12.5939
upperneck 17.3307 -3.2647 4.44427
head 8.25652 -2.03517 3.15551
rclavicle 2.73329e-014 -1.35174e-014
rhumerus -29.3422 -11.6744 -83.3835
rradius 28.8012
rwrist -9.90352
rhand -13.2704 20.6482
rfingers 7.12502
rthumb 12.8325 -8.93735
lclavicle 2.73329e-014 -1.35174e-014
lhumerus -30.4224 17.047 75.7675
lradius 28.3331
lwrist -11.497
lhand 1.63308 37.9492
lfingers 7.12502
lthumb 27.1536 66.0157
rfemur -1.29948 1.42742 12.8448
rtibia 12.3144
rfoot -9.7139 -9.78756
rtoes -4.18049
lfemur -7.1776 -0.736159 -22.0912
ltibia 22.1856
lfoot -13.8191 1.94147
ltoes -7.43783
596
root 6.95093 18.0185 6.78543 -176.635 4.89265 181.421
lowerback -0.535144 1.71648 -1.81105
upperback 1.09668 2.34357 -0.775501
thorax 1.38332 1.16527 0.259521
lowerneck -16.3503 -3.69945 -13.1778
upperneck 18.0814 -3.13495 5.32889
head 8.64932 -1.94014 3.57417
rclavicle -2.43511e-015 -1.47101e-014
rhumerus -29.2226 -11.7734 -83.3775
rradius 28.7898
rwrist -9.7048
rhand -13.18 20.7156
rfingers 7.12502
rthumb 12.9197 -8.8645
lclavicle -2.43511e-015 -1.47101e-014
lhumerus -30.3949 17.2458 75.6928
lradius 28.3049
lwrist -11.567
lhand 1.82397 38.0886
lfingers 7.12502
lthumb 27.3362 66.1265
rfemur -1.33554 1.47996 12.858
rtibia 12.3977
rfoot -9.7227 -9.80844
rtoes -4.7015
lfemur -7.06288 -1.72848 -22.163
ltibia 22.084
lfoot -13.5895 2.9552
ltoes -6.44913
597
root 6.94885 18.024 6.78509 -176.683 4.96856 181.344
lowerback -0.681327 1.69722 -1.77914
upperback 1.24984 2.32988 -0.868611
thorax 1.62788 1.15866 0.154338
lowerneck -16.7139 -3.64691 -13.3819
upperneck 18.3339 -3.05276 5.78153
head 8.80099 -1.87025 3.77787
rclavicle -1.85864e-014 2.62396e-014
rhumerus -28.9196 -11.9413 -83.5346
rradius 28.6689
rwrist -9.47812
rhand -13.107 20.7146
rfingers 7.12502
rthumb 12.99 -8.86094
lclavicle -1.85864e-014 2.62396e-014
lhumerus -30.1868 17.2612 75.6254
lradius 28.2982
lwrist -11.5926
lhand 2.03961 38.214
lfingers 7.12502
lthumb 27.5425 66.2191
rfemur -1.37397 1.52152 12.7652
rtibia 12.5253
rfoot -9.80956 -9.78062
rtoes -4.80275
lfemur -6.79822 -5.39685 -22.5425
ltibia 22.0221
lfoot -13.3074 6.62466
ltoes -5.64312
598
root 6.94801 18.0163 6.7883 -176.742 4.91405 181.218
lowerback -0.416693 1.68109 -2.05078
upperback 1.0534 2.29619 -0.786082
thorax 1.26458 1.14077 0.376892
lowerneck -16.2288 -3.58889 -13.4739
upperneck 18.2707 -3.0197 5.69284
head 8.68961 -1.88223 3.76658
rclavicle -1.19768e-014 1.59028e-014
rhumerus -29.2447 -11.8906 -83.3017
rradius 28.5869
rwrist -9.40596
rhand -13.1986 20.8542
rfingers 7.12502
rthumb 12.9018 -8.72696
lclavicle -1.19768e-014 1.59028e-014
lhumerus -30.63 17.1092 75.7487
lradius 28.4158
lwrist -11.423
lhand 1.79537 38.45
lfingers 7.12502
lthumb 27.3089 66.4922
rfemur -1.36808 1.48331 12.6199
rtibia 12.6222
rfoot -9.88332 -9.79479
rtoes -4.64794
lfemur -6.90058 -2.53942 -22.4709
ltibia 22.014
lfoot -13.5694 3.7858
ltoes -6.41875
599
root 6.94723 18.0131 6.78891 -176.775 4.92106 181.174
lowerback -0.504943 1.66253 -1.9053
upperback 1.19926 2.28294 -0.94561
thorax 1.4761 1.13657 0.138303
lowerneck -16.3823 -3.61896 -13.3328
upperneck 18.1877 -3.07892 5.79259
head 8.69305 -1.87976 3.76979
rclavicle -6.41081e-015 -1.59028e-014
rhumerus -29.0009 -12.0982 -83.561
rradius 28.5721
rwrist -9.27532
rhand -13.289 20.965
rfingers 7.12502
rthumb 12.8146 -8.62171
lclavicle -6.41081e-015 -1.59028e-014
lhumerus -30.4452 16.8136 75.7059
lradius 28.5989
lwrist -11.0747
lhand 1.74769 38.5423
lfingers 7.12502
lthumb 27.2633 66.5916
rfemur -1.36405 1.48874 12.5669
rtibia 12.6707
rfoot -9.92072 -9.79586
rtoes -4.3884
lfemur -6.95379 -1.20925 -22.4286
ltibia 22.0677
lfoot -13.8118 2.5095
ltoes -7.37025
600
root 6.94609 18.0154 6.78589 -176.789 5.01473 181.231
lowerback -0.248984 1.72245 -1.88955
upperback 0.952481 2.34558 -0.913974
thorax 1.07775 1.1702 0.149146
lowerneck -16.0723 -3.57419 -13.3944
upperneck 18.3048 -3.07797 5.82887
head 8.67843 -1.89523 3.79495
rclavicle -3.18055e-015 -1.39149e-014
rhumerus -29.5142 -11.9788 -83.4751
rradius 28.7593
rwrist -9.3836
rhand -13.2863 20.6604
rfingers 7.12502
rthumb 12.8172 -8.92612
lclavicle -3.18055e-015 -1.39149e-014
lhumerus -31.0494 16.4014 75.6654
lradius 28.8604
lwrist -10.8051
lhand 1.96331 38.5221
lfingers 7.12502
lthumb 27.4695 66.5388
rfemur -1.41175 1.6078 12.6142
rtibia 12.7555
rfoot -9.75168 -9.75187
rtoes -3.59041
lfemur -7.04563 -0.770246 -22.3471
ltibia 22.2887
lfoot -13.9387 2.17072
ltoes -7.67115
